<svg width="24" height="24" viewBox="0 0 24 24" fill="none" xmlns="http://www.w3.org/2000/svg">
<path d="M12.001 4.10156C19.6624 4.10165 22.8855 11.9645 22.9004 12.001C22.9004 12.001 19.7114 19.9004 12.001 19.9004C4.29061 19.9003 1.10156 12.001 1.10156 12.001C1.11255 11.9741 4.33494 4.10154 12.001 4.10156ZM12.001 6.10156C8.92241 6.10155 6.69827 7.66611 5.16309 9.38379C4.397 10.241 3.83372 11.1059 3.46289 11.7568C3.41346 11.8436 3.36736 11.9261 3.3252 12.0039C3.36684 12.0812 3.41214 12.1638 3.46094 12.25C3.82919 12.9001 4.38891 13.764 5.15234 14.6201C6.68119 16.3345 8.90512 17.9004 12.001 17.9004C15.0968 17.9004 17.3207 16.3345 18.8496 14.6201C19.6132 13.7638 20.1737 12.9002 20.542 12.25C20.5908 12.1639 20.6351 12.0812 20.6768 12.0039C20.6346 11.9262 20.5894 11.8435 20.54 11.7568C20.1692 11.1059 19.605 10.241 18.8389 9.38379C17.3037 7.66617 15.0795 6.1016 12.001 6.10156ZM12.001 8.00098C14.2101 8.00098 16.001 9.79184 16.001 12.001C16.001 14.2101 14.2101 16.001 12.001 16.001C9.79184 16.001 8.00098 14.2101 8.00098 12.001C8.00098 9.79184 9.79184 8.00098 12.001 8.00098ZM12.001 10.001C10.8964 10.001 10.001 10.8964 10.001 12.001C10.001 13.1055 10.8964 14.001 12.001 14.001C13.1055 14.001 14.001 13.1055 14.001 12.001C14.001 10.8964 13.1055 10.001 12.001 10.001Z" fill="#626973"/>
</svg>
