<svg width="24" height="24" viewBox="0 0 24 24" fill="none" xmlns="http://www.w3.org/2000/svg">
<path d="M2.9209 2.80859C3.31137 2.41812 3.94442 2.41822 4.33496 2.80859L6.93066 5.4043C8.33873 4.62521 10.0217 4.10059 12.001 4.10059C19.6802 4.10067 22.9004 12 22.9004 12C22.8836 12.0413 21.6486 15.0645 18.8848 17.3584L20.2959 18.7695C20.6864 19.1601 20.6864 19.7931 20.2959 20.1836C19.9054 20.574 19.2723 20.5741 18.8818 20.1836L2.9209 4.22266C2.53058 3.83217 2.53058 3.19908 2.9209 2.80859ZM5.98242 8.56641C5.71641 8.81567 5.39663 9.12149 5.16309 9.38281C4.39717 10.2398 3.83372 11.104 3.46289 11.7549C3.4134 11.8418 3.36741 11.925 3.3252 12.0029C3.36681 12.0802 3.41219 12.162 3.46094 12.248C3.82915 12.8982 4.38887 13.762 5.15234 14.6182C6.6812 16.3326 8.90506 17.8994 12.001 17.8994C13.0486 17.8994 13.9968 17.7198 14.8516 17.416L16.3545 18.9639C15.1029 19.5355 13.656 19.8994 12.001 19.8994C4.31645 19.8994 1.12288 12.0526 1.10156 12C1.10156 12 2.17213 9.37337 4.55078 7.14941L5.98242 8.56641ZM10.0068 12.1484C10.0787 13.1273 10.8551 13.9108 11.8311 13.9932L13.542 15.6924C13.0678 15.8905 12.547 16 12.001 16C9.79189 15.9999 8.00098 14.2091 8.00098 12C8.00098 11.4616 8.10793 10.9483 8.30078 10.4795L10.0068 12.1484ZM12.001 6.10059C10.6452 6.10059 9.45548 6.4043 8.41699 6.89062L10.04 8.51367C10.6195 8.187 11.2883 8.00002 12.001 8C14.2101 8 16.001 9.79086 16.001 12C16.001 12.7125 15.8129 13.3805 15.4863 13.96L17.4639 15.9375C17.9777 15.5261 18.4393 15.0783 18.8496 14.6182C19.6132 13.7619 20.1738 12.8982 20.542 12.248C20.5907 12.1621 20.6352 12.08 20.6768 12.0029C20.6346 11.925 20.5895 11.8417 20.54 11.7549C20.1692 11.104 19.6049 10.24 18.8389 9.38281C17.3037 7.6651 15.0797 6.10062 12.001 6.10059ZM12.001 10C11.8538 10 11.7104 10.0157 11.5723 10.0459L13.9541 12.4277C13.9842 12.2899 14.001 12.1469 14.001 12C14.001 10.8954 13.1055 10 12.001 10Z" fill="#626973"/>
</svg>
