<svg width="500" height="143" viewBox="0 0 500 143" fill="none" xmlns="http://www.w3.org/2000/svg">
<path d="M39.3981 0C17.6401 0 0 17.6322 0 39.3823V102.999C0 124.749 17.6401 142.382 39.3981 142.382H103.058C124.816 142.382 142.456 124.749 142.456 102.999V39.3823C142.456 17.6322 124.816 0 103.058 0H39.3981Z" fill="white"/>
<path d="M400.08 16.1841H408.761V59.582H400.08V16.1841Z" fill="white"/>
<path d="M404.443 9.99035C403.029 9.99035 401.827 9.49744 400.837 8.51161C399.858 7.5529 399.368 6.38076 399.368 4.99518C399.368 3.58318 399.858 2.39782 400.837 1.43842C401.827 0.479704 403.029 0 404.443 0C404.999 0 405.534 0.0757793 406.023 0.227338C406.769 0.456761 407.437 0.860686 408.038 1.43842C409.028 2.39782 409.518 3.58318 409.518 4.99518C409.518 6.38076 409.028 7.5529 408.038 8.51161C407.047 9.49744 405.856 9.99035 404.443 9.99035Z" fill="white"/>
<path d="M185.483 43.5175C185.806 46.3686 187.23 48.6593 189.756 50.3911C192.294 52.1229 195.466 52.9885 199.272 52.9885C202.9 52.9885 205.894 52.1494 208.276 50.4711C210.613 48.7928 211.793 46.6613 211.793 44.0771C211.793 41.8392 210.947 40.0143 209.266 38.6023C208.287 37.7596 206.951 37.0081 205.26 36.3483C204.069 35.8818 202.7 35.4612 201.153 35.0858L193.674 33.288C183.335 30.7831 178.171 25.6016 178.171 17.7428C178.171 12.7872 180.13 8.75147 184.047 5.63478C186.317 3.80913 188.989 2.5181 192.06 1.76169C194.231 1.22707 196.601 0.959408 199.161 0.959408C205.238 0.959408 210.19 2.5174 214.03 5.63478C217.869 8.72505 219.85 12.7608 219.984 17.7428H211.27C211.003 14.8924 209.767 12.628 207.552 10.9491C205.371 9.32433 202.533 8.51161 199.038 8.51161C196.979 8.51161 195.154 8.79248 193.552 9.35492C192.45 9.74077 191.448 10.2587 190.558 10.9094C188.399 12.5078 187.319 14.5858 187.319 17.1435C187.319 17.7004 187.386 18.2301 187.508 18.7321L187.709 19.3939L187.92 19.8778C188.321 20.7239 188.933 21.4775 189.756 22.1387C190.391 22.6406 191.192 23.1155 192.16 23.5639C193.652 24.2584 195.522 24.889 197.792 25.4556L204.158 27.0136C210.068 28.3992 214.352 30.3569 216.99 32.8882C219.082 34.8891 220.329 37.4426 220.752 40.5496C220.852 41.331 220.908 42.1472 220.908 42.9981C220.908 48.3799 218.904 52.6555 214.909 55.8257C210.914 58.9695 205.482 60.5414 198.638 60.5414C192.216 60.5414 187.019 59.0091 183.045 55.946C179.05 52.855 176.913 48.7129 176.646 43.5175H185.483Z" fill="white"/>
<path d="M228.888 16.1841H237.157V23.5375H237.324C238.303 21.1125 239.906 19.1944 242.12 17.7824C244.302 16.3975 246.817 15.7051 249.677 15.7051C255.932 15.7051 259.983 18.5152 261.831 24.1367H262.031C262.454 23.1739 262.966 22.2847 263.556 21.4699C264.568 20.0766 265.826 18.901 267.34 17.9423C269.766 16.4504 272.526 15.7051 275.62 15.7051C276.922 15.7051 278.135 15.824 279.27 16.0617C279.738 16.1584 280.183 16.2745 280.617 16.41C281.162 16.5783 281.685 16.7764 282.186 17.0052L282.81 17.3201C283.088 17.4675 283.366 17.6246 283.633 17.7921C284.446 18.3066 285.202 18.9163 285.892 19.6213C288.486 22.2054 289.777 25.6683 289.777 30.0107V59.582H281.14V32.0887C281.14 29.2383 280.406 27.0407 278.936 25.4952C277.445 23.9233 275.353 23.1377 272.659 23.1377C270 23.1377 267.829 24.0297 266.149 25.815C264.435 27.5997 263.589 29.8779 263.589 32.6484V59.582H255.075V31.3698C255.075 28.865 254.329 26.8669 252.827 25.3756C251.313 23.8837 249.288 23.1377 246.75 23.1377C245.804 23.1377 244.925 23.2545 244.09 23.4895C243.478 23.6626 242.899 23.8997 242.354 24.2007C241.553 24.6415 240.818 25.2192 240.162 25.9346L239.694 26.4664C239.527 26.6729 239.371 26.885 239.227 27.1033C239.06 27.348 238.904 27.5997 238.759 27.8583C238.492 28.3533 238.27 28.8747 238.092 29.4232C237.936 29.8967 237.813 30.3896 237.724 30.902L237.624 31.7147L237.58 32.3279L237.557 32.9682V59.582H228.888V16.1841Z" fill="white"/>
<path fill-rule="evenodd" clip-rule="evenodd" d="M305.658 58.9834C306.56 59.3143 307.517 59.566 308.518 59.7384C309.62 59.9268 310.789 60.0214 312.024 60.0214C313.349 60.0214 314.628 59.8837 315.864 59.6084C316.409 59.4861 316.943 59.3366 317.478 59.16C317.967 58.9959 318.446 58.8075 318.913 58.5962L319.247 58.446L320.215 57.9434C322.697 56.5585 324.534 54.6932 325.736 52.3489H325.936V59.582H334.216V29.8112C334.216 25.5216 332.625 22.0851 329.453 19.501C326.314 16.9169 322.085 15.6251 316.776 15.6251C311.902 15.6251 307.84 16.8904 304.59 19.4211C301.34 21.9517 299.648 25.1358 299.515 28.972H307.628C307.995 27.0803 308.986 25.5752 310.589 24.4566C312.213 23.3372 314.194 22.7776 316.543 22.7776C319.448 22.7776 321.685 23.4304 323.254 24.736C324.856 26.0681 325.658 27.973 325.658 30.4501V33.8073L313.938 34.4865C308.563 34.8328 304.456 36.0849 301.629 38.2428C298.78 40.4008 297.356 43.3715 297.356 47.1542C297.356 51.0168 298.713 54.1342 301.429 56.5049C302.664 57.5756 304.078 58.4022 305.658 58.9834ZM322.419 50.3508C320.26 52.189 317.567 53.1081 314.339 53.1081C313.449 53.1081 312.636 53.0379 311.868 52.8967L311.312 52.7772L310.844 52.6513C309.898 52.3718 309.064 51.9651 308.34 51.4298C306.849 50.3376 306.103 48.8589 306.103 46.9943C306.103 43.1045 309.108 40.9737 315.107 40.6003L325.658 39.8815V43.2776C325.658 46.1287 324.578 48.4862 322.419 50.3508Z" fill="white"/>
<path d="M343.754 16.1841H352.023V23.4971H352.19C352.847 21.0729 354.127 19.1812 356.019 17.8227C357.889 16.4372 360.103 15.7447 362.663 15.7447C363.865 15.7447 364.822 15.8511 365.534 16.0645V24.1764C364.577 23.8037 363.309 23.6167 361.739 23.6167C358.89 23.6167 356.62 24.5365 354.939 26.3747L354.605 26.7661L354.271 27.1936L354.138 27.3869C353.76 27.948 353.437 28.557 353.181 29.2133C352.68 30.5168 352.424 32.0081 352.424 33.687V59.582H343.754V16.1841Z" fill="white"/>
<path d="M383.308 16.1841V6.43359H374.672V16.1841H370.231V23.0174H374.672V48.1532C374.672 50.3119 374.917 52.1515 375.406 53.6726C375.863 55.1173 376.541 56.2748 377.432 57.1445C379.268 58.9563 382.362 59.8622 386.714 59.8622C388.784 59.8622 390.409 59.7155 391.588 59.4221V52.5887L391.021 52.6604L390.398 52.7195L389.763 52.7612L388.628 52.789C385.089 52.789 383.308 50.9508 383.308 47.2738V23.0174H393.18V16.1841H383.308Z" fill="white"/>
<path d="M448.36 59.582H456.64V16.1841H447.959V41.2003C447.959 44.6368 446.957 47.394 444.965 49.4721C442.984 51.5501 440.38 52.5887 437.13 52.5887C433.98 52.5887 431.554 51.7232 429.851 49.9914C428.137 48.2332 427.292 45.6887 427.292 42.3585V16.1841H418.611V43.9972C418.611 48.9527 420.024 52.8689 422.851 55.7458C423.819 56.7344 424.899 57.554 426.09 58.2027C426.435 58.3939 426.791 58.5704 427.169 58.7317L427.748 58.9702C428.193 59.1419 428.649 59.2935 429.128 59.4242C430.664 59.849 432.344 60.0617 434.17 60.0617C440.936 60.0617 445.611 57.424 448.204 52.1494H448.36V59.582Z" fill="white"/>
<path d="M467.146 22.6705C467.914 21.3927 468.96 20.2428 470.284 19.2215C473.412 16.8501 477.463 15.6648 482.449 15.6648C487.19 15.6648 491.119 16.8772 494.235 19.3015C497.329 21.6986 498.932 24.7896 499.032 28.5723H490.885C490.696 26.6542 489.828 25.1358 488.281 24.0165C487.435 23.4019 486.444 22.9563 485.309 22.6789C484.385 22.4515 483.362 22.3382 482.249 22.3382C479.789 22.3382 477.808 22.8575 476.283 23.8969C474.792 24.9627 474.046 26.3476 474.046 28.0529C474.046 30.6635 476.305 32.5149 480.802 33.6071L488.002 35.3257C492.376 36.3914 495.47 37.8034 497.273 39.5617C499.087 41.3199 500 43.7977 500 46.9943C500 50.8569 498.331 54.014 495.003 56.4653C491.664 58.8896 487.379 60.1013 482.126 60.1013C477.085 60.1013 472.956 58.9028 469.728 56.5049C466.534 54.1342 464.775 50.9772 464.453 47.0346H473.011C473.701 51.3234 476.884 53.4682 482.56 53.4682C485.254 53.4682 487.402 52.9489 489.004 51.9095C490.573 50.8709 491.364 49.4721 491.364 47.7138C491.364 46.3283 490.885 45.2361 489.917 44.4366C488.993 43.6378 487.379 42.9446 485.087 42.3585L477.329 40.4404C469.517 38.5223 465.61 34.5533 465.61 28.5319C465.61 26.3455 466.122 24.3912 467.146 22.6705Z" fill="white"/>
<path d="M222.343 135.788C226.717 131.366 228.899 125.251 228.899 117.446V111.571H205.148V118.805H220.062V119.804C220.04 122.263 219.55 124.465 218.593 126.41C217.847 127.92 216.834 129.274 215.543 130.473C214.063 131.839 212.36 132.862 210.446 133.541C209.522 133.867 208.554 134.113 207.541 134.281C206.451 134.46 205.304 134.549 204.113 134.549C198.627 134.549 194.275 132.551 191.081 128.555C187.876 124.585 186.284 119.151 186.284 112.251C186.284 105.484 187.853 100.182 191.003 96.3461C194.119 92.537 198.437 90.632 203.958 90.632C207.708 90.632 210.936 91.6179 213.629 93.5888C216.322 95.5605 218.203 98.3309 219.272 101.901H228.465C228.12 99.93 227.574 98.0918 226.829 96.3864C225.894 94.2639 224.636 92.3479 223.067 90.6369C222.521 90.0418 221.943 89.4717 221.331 88.926C220.986 88.6208 220.629 88.3239 220.262 88.0347C215.788 84.5447 210.335 82.7997 203.913 82.7997C195.677 82.7997 189.155 85.4505 184.359 90.7516C179.54 96.0534 177.125 103.246 177.125 112.331C177.125 121.575 179.551 128.901 184.403 134.309C189.222 139.691 195.766 142.382 204.036 142.382C205.972 142.382 207.797 142.247 209.522 141.976C210.98 141.749 212.36 141.425 213.662 141.005C217.057 139.914 219.951 138.176 222.343 135.788Z" fill="white"/>
<path d="M275.42 141.422H267.15V133.99H266.983C264.401 139.265 259.716 141.902 252.949 141.902C248.208 141.902 244.435 140.464 241.642 137.586C238.815 134.709 237.402 130.793 237.402 125.837V98.025H246.071V124.199C246.071 124.676 246.094 125.136 246.127 125.58C246.16 126.001 246.205 126.408 246.261 126.801L246.372 127.356C246.761 129.186 247.518 130.678 248.631 131.832C250.334 133.563 252.76 134.43 255.91 134.43C258.013 134.43 259.85 133.994 261.419 133.122C262.276 132.648 263.055 132.044 263.745 131.312C265.748 129.234 266.75 126.477 266.75 123.041V98.025H275.42V141.422Z" fill="white"/>
<path d="M294.117 141.422V98.025H285.436V141.422H294.117Z" fill="white"/>
<path d="M286.193 90.3519C287.183 91.3377 288.385 91.8306 289.799 91.8306C290.11 91.8306 290.422 91.8056 290.711 91.7562L291.19 91.6478L291.713 91.4781C292.325 91.232 292.882 90.8566 293.394 90.3519C294.384 89.3932 294.874 88.221 294.874 86.8354C294.874 86.4225 294.829 86.029 294.74 85.6549C294.651 85.2489 294.518 84.8659 294.328 84.5057C294.217 84.2895 294.084 84.0817 293.928 83.8821C293.772 83.6722 293.594 83.4712 293.394 83.2794C292.403 82.32 291.212 81.8403 289.799 81.8403L289.409 81.8535L289.109 81.882C288.853 81.9126 288.597 81.9598 288.363 82.0245C287.551 82.2449 286.827 82.6634 286.193 83.2794C285.558 83.8953 285.124 84.6045 284.902 85.4074C284.779 85.8545 284.713 86.3307 284.713 86.8354C284.713 88.221 285.213 89.3932 286.193 90.3519Z" fill="white"/>
<path fill-rule="evenodd" clip-rule="evenodd" d="M320.516 141.862C315.051 141.862 310.644 139.837 307.283 135.788C303.9 131.738 302.208 126.371 302.208 119.684C302.208 113.05 303.9 107.696 307.283 103.62C307.984 102.78 308.73 102.029 309.52 101.365C310.41 100.616 311.356 99.9786 312.358 99.4523C314.74 98.2072 317.433 97.585 320.438 97.585C326.915 97.585 331.478 100.129 334.116 105.218H334.316V81.161H342.953V141.422H334.55V134.07H334.394C331.701 139.265 327.071 141.862 320.516 141.862ZM322.72 104.938C321.273 104.938 319.948 105.168 318.735 105.626C317.021 106.278 315.53 107.394 314.283 108.974C312.147 111.665 311.078 115.248 311.078 119.724C311.078 124.226 312.147 127.809 314.283 130.473C315.563 132.106 317.099 133.244 318.902 133.886C320.071 134.302 321.34 134.51 322.72 134.51C324.6 134.51 326.281 134.116 327.761 133.329C329.041 132.653 330.165 131.688 331.156 130.434C333.293 127.716 334.35 124.146 334.35 119.724C334.35 116.045 333.615 112.955 332.146 110.456C331.846 109.951 331.512 109.47 331.156 109.014C328.997 106.297 326.181 104.938 322.72 104.938Z" fill="white"/>
<path fill-rule="evenodd" clip-rule="evenodd" d="M383.954 138.266C387.415 135.788 389.452 132.605 390.064 128.715H381.795C381.205 130.607 379.992 132.112 378.155 133.23C376.319 134.35 374.126 134.909 371.6 134.909C368.027 134.909 365.156 133.764 362.997 131.472C360.838 129.208 359.758 126.198 359.758 122.441V121.921H390.509V118.885C390.509 112.304 388.762 107.096 385.267 103.259C384.076 101.941 382.741 100.847 381.26 99.9786C380.837 99.7318 380.403 99.5031 379.958 99.2924C377.387 98.0744 374.427 97.4654 371.077 97.4654C365 97.4654 360.137 99.5031 356.486 103.579C352.836 107.655 351.011 113.09 351.011 119.884C351.011 123.574 351.545 126.845 352.624 129.695C352.947 130.566 353.325 131.399 353.76 132.192C354.516 133.578 355.429 134.843 356.486 135.988C360.159 139.957 365.145 141.942 371.433 141.942C376.319 141.942 380.481 140.717 383.954 138.266ZM363.275 107.655C365.334 105.577 367.916 104.539 371.032 104.539C372.257 104.539 373.392 104.694 374.438 105.004C376.085 105.492 377.51 106.362 378.712 107.616C379.847 108.798 380.67 110.203 381.194 111.828C381.572 113.022 381.783 114.335 381.828 115.768H359.803C360.037 112.438 361.205 109.733 363.275 107.655Z" fill="white"/>
<path d="M61.8753 82.5201L57.3374 80.1232L81.3143 38.4429L85.7661 40.9258L61.8753 82.5201Z" fill="#1A237E"/>
<path d="M49.8781 48.3592V43.1858L17.0948 59.0502L49.8781 75.7775V70.7763L27.5551 59.2223L49.8781 48.3592Z" fill="#1A237E"/>
<path d="M92.5824 48.3583V43.185L125.363 59.0493L98.0433 73.0168V93.8216C89.6985 104.06 71.8649 106.98 58.0966 102.59L60.8436 97.8076V97.8032C71.6242 101.006 84.6858 99.0082 92.6177 91.7956L92.6198 75.7896L85.6817 79.3367V74.3355L114.903 59.2215L92.5824 48.3583Z" fill="#4089F6"/>
</svg>
