<?xml version="1.0" encoding="UTF-8"?> <svg xmlns="http://www.w3.org/2000/svg" width="184" height="50" viewBox="0 0 184 50" fill="none"> <path d="M67.5419 21.2149C66.0727 21.2149 64.6477 21.0202 63.267 20.6307C61.904 20.2236 60.8066 19.7014 59.9746 19.0642L61.435 15.8249C62.2315 16.409 63.1785 16.8781 64.276 17.2321C65.3735 17.5861 66.4709 17.7632 67.5684 17.7632C68.7898 17.7632 69.6926 17.5861 70.2767 17.2321C70.8608 16.8604 71.1529 16.3736 71.1529 15.7718C71.1529 15.3292 70.9759 14.9664 70.6219 14.6831C70.2856 14.3822 69.843 14.1433 69.2943 13.9662C68.7633 13.7892 68.0375 13.5945 67.117 13.3821C65.7009 13.0458 64.5415 12.7095 63.6388 12.3731C62.736 12.0368 61.9571 11.4969 61.3022 10.7535C60.665 10.01 60.3463 9.01876 60.3463 7.77968C60.3463 6.6999 60.6384 5.72634 61.2225 4.85898C61.8067 3.97392 62.6829 3.27472 63.8512 2.76139C65.0372 2.24805 66.4798 1.99139 68.1791 1.99139C69.3651 1.99139 70.5245 2.133 71.6574 2.41621C72.7903 2.69943 73.7815 3.10656 74.6312 3.6376L73.3036 6.90347C71.5866 5.9299 69.8696 5.44312 68.1526 5.44312C66.9489 5.44312 66.055 5.63783 65.4708 6.02726C64.9044 6.41668 64.6212 6.93002 64.6212 7.56726C64.6212 8.20451 64.9486 8.68244 65.6036 9.00106C66.2762 9.30198 67.2941 9.6029 68.657 9.90382C70.0731 10.2401 71.2326 10.5765 72.1353 10.9128C73.0381 11.2491 73.8081 11.7801 74.4453 12.5059C75.1003 13.2316 75.4278 14.2141 75.4278 15.4531C75.4278 16.5152 75.1268 17.4888 74.525 18.3738C73.9409 19.2412 73.0558 19.9316 71.8698 20.4449C70.6838 20.9582 69.2412 21.2149 67.5419 21.2149Z" fill="white"></path> <path d="M96.369 6.39898C98.1569 6.39898 99.573 6.93002 100.617 7.99209C101.679 9.03646 102.21 10.6119 102.21 12.7183V20.8963H98.0683V13.3556C98.0683 12.2227 97.8294 11.3819 97.3514 10.8331C96.8912 10.2667 96.2274 9.98348 95.3601 9.98348C94.3865 9.98348 93.6165 10.3021 93.0501 10.9393C92.4836 11.5589 92.2004 12.4882 92.2004 13.7273V20.8963H88.0583V13.3556C88.0583 11.1075 87.1556 9.98348 85.35 9.98348C84.3942 9.98348 83.633 10.3021 83.0666 10.9393C82.5001 11.5589 82.2169 12.4882 82.2169 13.7273V20.8963H78.0748V6.6114H82.0311V8.25761C82.5621 7.65577 83.2082 7.19554 83.9693 6.87692C84.7482 6.5583 85.5979 6.39898 86.5183 6.39898C87.5273 6.39898 88.4389 6.60255 89.2532 7.00968C90.0674 7.3991 90.7224 7.97439 91.218 8.73554C91.8021 7.99209 92.5367 7.4168 93.4218 7.00968C94.3245 6.60255 95.307 6.39898 96.369 6.39898Z" fill="white"></path> <path d="M111.685 6.39898C113.898 6.39898 115.597 6.93002 116.783 7.99209C117.969 9.03646 118.562 10.6207 118.562 12.7449V20.8963H114.685V19.1173C113.906 20.4449 112.455 21.1087 110.331 21.1087C109.233 21.1087 108.277 20.9228 107.463 20.5511C106.667 20.1794 106.056 19.666 105.631 19.0111C105.206 18.3561 104.994 17.6127 104.994 16.7807C104.994 15.4531 105.489 14.4088 106.481 13.6476C107.49 12.8865 109.039 12.5059 111.127 12.5059H114.42C114.42 11.6031 114.145 10.9128 113.597 10.4349C113.048 9.93922 112.225 9.69141 111.127 9.69141C110.366 9.69141 109.614 9.81532 108.87 10.0631C108.145 10.2932 107.525 10.6119 107.012 11.019L105.525 8.12485C106.304 7.57611 107.233 7.15128 108.313 6.85036C109.41 6.54944 110.534 6.39898 111.685 6.39898ZM111.366 18.3207C112.074 18.3207 112.703 18.1614 113.251 17.8428C113.8 17.5065 114.19 17.0197 114.42 16.3825V14.9221H111.579C109.879 14.9221 109.03 15.4797 109.03 16.5949C109.03 17.1259 109.233 17.5507 109.64 17.8694C110.065 18.1703 110.64 18.3207 111.366 18.3207Z" fill="white"></path> <path d="M126.267 8.49658C126.762 7.80623 127.426 7.28404 128.258 6.93002C129.108 6.576 130.081 6.39898 131.179 6.39898V10.2224C130.719 10.187 130.409 10.1693 130.25 10.1693C129.064 10.1693 128.134 10.5057 127.462 11.1783C126.789 11.8333 126.453 12.8245 126.453 14.1521V20.8963H122.311V6.6114H126.267V8.49658Z" fill="white"></path> <path d="M143.348 20.2059C142.941 20.5068 142.436 20.737 141.834 20.8963C141.25 21.0379 140.631 21.1087 139.976 21.1087C138.276 21.1087 136.958 20.675 136.02 19.8076C135.099 18.9403 134.639 17.6658 134.639 15.9842V10.1162H132.435V6.93002H134.639V3.45174H138.781V6.93002H142.339V10.1162H138.781V15.9311C138.781 16.5329 138.931 17.002 139.232 17.3383C139.551 17.6569 139.993 17.8163 140.56 17.8163C141.215 17.8163 141.772 17.6392 142.233 17.2852L143.348 20.2059Z" fill="white"></path> <path d="M145.673 6.6114H149.815V20.8963H145.673V6.6114ZM147.744 4.62001C146.983 4.62001 146.363 4.39875 145.885 3.95622C145.408 3.51369 145.169 2.96495 145.169 2.31001C145.169 1.65506 145.408 1.10633 145.885 0.663796C146.363 0.221265 146.983 0 147.744 0C148.505 0 149.125 0.212415 149.603 0.637244C150.081 1.06207 150.32 1.59311 150.32 2.23035C150.32 2.9207 150.081 3.49599 149.603 3.95622C149.125 4.39875 148.505 4.62001 147.744 4.62001Z" fill="white"></path> <path d="M168.05 6.6114V20.8963H164.121V19.197C163.572 19.8165 162.917 20.2944 162.156 20.6307C161.395 20.9494 160.572 21.1087 159.687 21.1087C157.81 21.1087 156.323 20.5688 155.226 19.489C154.128 18.4092 153.58 16.8073 153.58 14.6831V6.6114H157.722V14.0725C157.722 16.3736 158.686 17.5242 160.616 17.5242C161.607 17.5242 162.404 17.2056 163.006 16.5683C163.607 15.9134 163.908 14.9487 163.908 13.6742V6.6114H168.05Z" fill="white"></path> <path d="M176.694 21.1087C175.508 21.1087 174.348 20.9671 173.215 20.6839C172.082 20.3829 171.18 20.0112 170.507 19.5687L171.888 16.5949C172.525 17.002 173.295 17.3383 174.198 17.6038C175.101 17.8517 175.986 17.9756 176.853 17.9756C178.605 17.9756 179.482 17.5419 179.482 16.6745C179.482 16.2674 179.243 15.9753 178.765 15.7983C178.287 15.6213 177.552 15.4708 176.561 15.3469C175.393 15.1699 174.428 14.9664 173.667 14.7362C172.906 14.5061 172.242 14.099 171.675 13.5149C171.127 12.9307 170.852 12.0988 170.852 11.019C170.852 10.1162 171.109 9.31968 171.622 8.62934C172.153 7.92129 172.914 7.37255 173.906 6.98312C174.915 6.5937 176.101 6.39898 177.464 6.39898C178.473 6.39898 179.473 6.51404 180.464 6.74416C181.473 6.95657 182.305 7.25749 182.96 7.64692L181.579 10.5942C180.322 9.88612 178.951 9.5321 177.464 9.5321C176.579 9.5321 175.915 9.656 175.472 9.90382C175.03 10.1516 174.808 10.4703 174.808 10.8597C174.808 11.3022 175.047 11.612 175.525 11.789C176.003 11.966 176.764 12.1342 177.809 12.2935C178.977 12.4882 179.933 12.7006 180.676 12.9307C181.42 13.1431 182.066 13.5414 182.615 14.1256C183.163 14.7097 183.438 15.524 183.438 16.5683C183.438 17.4534 183.172 18.2411 182.641 18.9314C182.11 19.6218 181.331 20.1617 180.305 20.5511C179.296 20.9228 178.092 21.1087 176.694 21.1087Z" fill="white"></path> <path d="M73.994 37.8629H77.9236V45.4036C76.9147 46.1647 75.7464 46.7489 74.4188 47.156C73.0912 47.5631 71.7548 47.7667 70.4095 47.7667C68.48 47.7667 66.7453 47.3596 65.2053 46.5453C63.6653 45.7133 62.4528 44.5716 61.5677 43.1201C60.7004 41.6509 60.2667 39.9959 60.2667 38.1549C60.2667 36.314 60.7004 34.6678 61.5677 33.2163C62.4528 31.7471 63.6742 30.6054 65.2319 29.7911C66.7896 28.9592 68.542 28.5432 70.4891 28.5432C72.1176 28.5432 73.5957 28.8176 74.9233 29.3663C76.2509 29.915 77.366 30.7116 78.2688 31.7559L75.5074 34.3049C74.1798 32.9065 72.5779 32.2073 70.7015 32.2073C69.5156 32.2073 68.4623 32.4552 67.5419 32.9508C66.6214 33.4464 65.9045 34.1456 65.3912 35.0484C64.8778 35.9511 64.6212 36.9867 64.6212 38.1549C64.6212 39.3055 64.8778 40.3322 65.3912 41.2349C65.9045 42.1377 66.6126 42.8457 67.5153 43.3591C68.4358 43.8547 69.4802 44.1025 70.6484 44.1025C71.8875 44.1025 73.0027 43.837 73.994 43.306V37.8629Z" fill="white"></path> <path d="M96.0183 33.1632V47.4481H92.0886V45.7487C91.5399 46.3683 90.8849 46.8462 90.1238 47.1825C89.3626 47.5012 88.5395 47.6605 87.6544 47.6605C85.7781 47.6605 84.2912 47.1206 83.1937 46.0408C82.0963 44.961 81.5475 43.3591 81.5475 41.2349V33.1632H85.6896V40.6243C85.6896 42.9254 86.6543 44.076 88.5838 44.076C89.575 44.076 90.3716 43.7574 90.9734 43.1201C91.5753 42.4652 91.8762 41.5005 91.8762 40.226V33.1632H96.0183Z" fill="white"></path> <path d="M99.8556 33.1632H103.998V47.4481H99.8556V33.1632ZM101.927 31.1718C101.166 31.1718 100.546 30.9505 100.068 30.508C99.5901 30.0655 99.3511 29.5167 99.3511 28.8618C99.3511 28.2069 99.5901 27.6581 100.068 27.2156C100.546 26.7731 101.166 26.5518 101.927 26.5518C102.688 26.5518 103.307 26.7642 103.785 27.189C104.263 27.6139 104.502 28.1449 104.502 28.7822C104.502 29.4725 104.263 30.0478 103.785 30.508C103.307 30.9505 102.688 31.1718 101.927 31.1718Z" fill="white"></path> <path d="M122.392 27.7466V47.4481H118.436V45.8019C117.409 47.0409 115.922 47.6605 113.975 47.6605C112.63 47.6605 111.409 47.3596 110.311 46.7577C109.231 46.1559 108.382 45.2974 107.762 44.1822C107.143 43.067 106.833 41.7748 106.833 40.3056C106.833 38.8364 107.143 37.5442 107.762 36.4291C108.382 35.3139 109.231 34.4554 110.311 33.8535C111.409 33.2517 112.63 32.9508 113.975 32.9508C115.799 32.9508 117.224 33.5261 118.25 34.6766V27.7466H122.392ZM114.692 44.2618C115.737 44.2618 116.604 43.9078 117.294 43.1998C117.985 42.474 118.33 41.5093 118.33 40.3056C118.33 39.1019 117.985 38.1461 117.294 37.438C116.604 36.7123 115.737 36.3494 114.692 36.3494C113.63 36.3494 112.754 36.7123 112.064 37.438C111.373 38.1461 111.028 39.1019 111.028 40.3056C111.028 41.5093 111.373 42.474 112.064 43.1998C112.754 43.9078 113.63 44.2618 114.692 44.2618Z" fill="white"></path> <path d="M140.219 40.3587C140.219 40.4118 140.192 40.7836 140.139 41.4739H129.332C129.527 42.359 129.987 43.0582 130.713 43.5715C131.439 44.0848 132.342 44.3415 133.421 44.3415C134.165 44.3415 134.82 44.2353 135.386 44.0229C135.97 43.7928 136.51 43.4387 137.006 42.9608L139.21 45.3505C137.864 46.8905 135.9 47.6605 133.315 47.6605C131.704 47.6605 130.279 47.3507 129.04 46.7312C127.801 46.0939 126.845 45.2177 126.173 44.1025C125.5 42.9874 125.164 41.7217 125.164 40.3056C125.164 38.9072 125.491 37.6504 126.146 36.5353C126.819 35.4024 127.731 34.5262 128.881 33.9066C130.049 33.2694 131.35 32.9508 132.784 32.9508C134.183 32.9508 135.448 33.2517 136.581 33.8535C137.714 34.4554 138.599 35.3227 139.236 36.4556C139.891 37.5708 140.219 38.8718 140.219 40.3587ZM132.811 36.0839C131.873 36.0839 131.085 36.3494 130.448 36.8804C129.81 37.4115 129.421 38.1372 129.279 39.0577H136.316C136.174 38.1549 135.785 37.438 135.147 36.907C134.51 36.3583 133.731 36.0839 132.811 36.0839Z" fill="white"></path> <circle cx="25" cy="25" r="25" fill="white"></circle> <path d="M33.4105 19.4903C33.4105 14.8012 29.645 11 25 11C20.355 11 16.5895 14.8012 16.5895 19.4903V28.3419C16.5895 29.7387 15.4678 30.871 14.0842 30.871C12.7006 30.871 11.5789 29.7387 11.5789 28.3419C11.5789 27.3443 10.7778 26.5355 9.78947 26.5355C8.80117 26.5355 8 27.3443 8 28.3419C8 31.734 10.724 34.4839 14.0842 34.4839C17.2954 34.4839 19.9255 31.9726 20.1525 28.7894C20.1701 28.5429 20.3687 28.3419 20.6158 28.3419V28.3419C20.8629 28.3419 21.0646 28.5428 21.0493 28.7894C20.8207 32.4718 17.7897 35.3871 14.0842 35.3871C13.0959 35.3871 12.2947 36.1959 12.2947 37.1936C12.2947 38.1912 13.0959 39 14.0842 39C19.7963 39 24.4489 34.4208 24.6362 28.7005C24.6427 28.5029 24.8023 28.3419 25 28.3419V28.3419C25.1977 28.3419 25.3573 28.5029 25.3638 28.7005C25.5511 34.4208 30.2037 39 35.9158 39C36.9041 39 37.7053 38.1912 37.7053 37.1936C37.7053 36.1959 36.9041 35.3871 35.9158 35.3871C32.2103 35.3871 29.1793 32.4718 28.9507 28.7894C28.9354 28.5428 29.1371 28.3419 29.3842 28.3419V28.3419C29.6313 28.3419 29.8299 28.5429 29.8475 28.7894C30.0745 31.9726 32.7046 34.4839 35.9158 34.4839C39.276 34.4839 42 31.734 42 28.3419C42 27.3443 41.1988 26.5355 40.2105 26.5355C39.2222 26.5355 38.4211 27.3443 38.4211 28.3419C38.4211 29.7387 37.2994 30.871 35.9158 30.871C34.5322 30.871 33.4105 29.7387 33.4105 28.3419V19.4903Z" fill="#4089F6"></path> </svg> 