<svg width="200" height="200" viewBox="334 88 60 56" fill="none" xmlns="http://www.w3.org/2000/svg">
  <g transform="matrix(1, 0, 0, 1, 1, -0.102999)">
    <path d="M339.131 96.723C339.131 93.807 341.423 91.515 344.339 91.515H359.964C362.256 91.515 364.131 93.39 364.131 95.682V139.432C364.131 137.14 362.256 135.265 359.964 135.265H344.339C341.423 135.265 339.131 132.973 339.131 130.057V96.723Z" fill="none" stroke="#000000" stroke-width="2.4" stroke-linecap="round" stroke-linejoin="round"/>
    <path d="M389.131 96.723C389.131 93.807 386.839 91.515 383.923 91.515H368.298C366.006 91.515 364.131 93.39 364.131 95.682V139.432C364.131 137.14 366.006 135.265 368.298 135.265H383.923C386.839 135.265 389.131 132.973 389.131 130.057V96.723Z" fill="none" stroke="#000000" stroke-width="2.4" stroke-linecap="round" stroke-linejoin="round"/>
    <path d="M347.464 104.015H356.839" fill="none" stroke="#000000" stroke-width="2.4" stroke-linecap="round" stroke-linejoin="round"/>
    <path d="M347.464 112.348H356.839" fill="none" stroke="#000000" stroke-width="2.4" stroke-linecap="round" stroke-linejoin="round"/>
    <path d="M347.464 120.682H354.756" fill="none" stroke="#000000" stroke-width="2.4" stroke-linecap="round" stroke-linejoin="round"/>
    <path d="M371.423 104.015H380.798" fill="none" stroke="#000000" stroke-width="2.4" stroke-linecap="round" stroke-linejoin="round"/>
    <path d="M371.423 112.348H380.798" fill="none" stroke="#000000" stroke-width="2.4" stroke-linecap="round" stroke-linejoin="round"/>
    <path d="M371.423 120.682H378.714" fill="none" stroke="#000000" stroke-width="2.4" stroke-linecap="round" stroke-linejoin="round"/>
  </g>
</svg>
