<svg xmlns="http://www.w3.org/2000/svg" viewBox="400 144 49 56" fill="none">
  <path d="M447.035 164.164C447.035 162.375 445.933 161.663 444.609 161.268C444.609 161.268 435.667 162.153 432.486 162.523C429.977 162.814 428.662 160.898 430.634 157.752C431.953 155.649 432.486 154.869 432.486 153.063C432.486 149.144 429.23 145.968 425.213 145.968C421.195 145.968 417.941 149.144 417.941 153.063C417.941 154.842 418.555 156.059 419.758 157.757C422.031 160.972 420.667 162.708 417.941 162.523C414.954 162.321 405.816 161.268 405.816 161.268C404.224 161.008 403.581 162.338 403.392 164.09C403.392 164.09 402.899 166.117 402.127 176.368C402.066 176.604 402.122 176.867 402.141 176.973C402.559 179.118 404.78 177.787 407.072 176.16C408.547 175.113 410.097 174.35 411.921 174.35C415.938 174.35 419.195 177.524 419.195 181.444C419.195 185.364 415.938 188.539 411.921 188.539C409.988 188.539 408.651 187.938 406.944 186.594C405.233 185.249 402.899 183.772 402.217 185.435C402.095 185.73 402.064 186.323 402.126 186.703C402.835 194.083 403.116 194.434 403.389 195.634C403.667 196.836 404.477 198 405.815 198H443.699C445.859 198 447.035 196.707 447.035 194.749C447.035 193.715 447.035 165.951 447.035 164.164Z" fill="#7C3AED" stroke="#2B245C" stroke-width="2" stroke-linecap="round" stroke-linejoin="round"/>
</svg>
